<?xml version="1.0" encoding="utf-8"?>
<!-- Generator: $$$/GeneralStr/196=Adobe Illustrator 27.6.0, SVG Export Plug-In . SVG Version: 6.00 Build 0)  -->
<svg version="1.1" id="Ebene_1" xmlns="http://www.w3.org/2000/svg" xmlns:xlink="http://www.w3.org/1999/xlink" x="0px" y="0px"
	 viewBox="0 0 1024 1024" style="enable-background:new 0 0 1024 1024;" xml:space="preserve">
<style type="text/css">
	.st0{fill:#242424;}
	.st1{opacity:0.87;}
	.st2{fill:#FFFFFF;}
</style>
<rect class="st0" width="1024" height="1024"/>
<g class="st1">
	<path class="st2" d="M198.2,665V366.2h78.6l7.2,64.2h2.4c14.4-24.4,32-42.4,52.8-54c20.8-11.6,42.8-17.4,66-17.4
		c13.6,0,24.4,1.1,32.4,3.3c8,2.2,16.2,5.1,24.6,8.7L443,451.4c-8.8-3.2-17-5.5-24.6-6.9c-7.6-1.4-16.8-2.1-27.6-2.1
		c-18,0-35.6,5.3-52.8,15.9c-17.2,10.6-32,28.9-44.4,54.9V665H198.2z"/>
	<path class="st2" d="M533,773V366.2h78l6.6,28.8h2.4c12-10.8,25.5-19.5,40.5-26.1s30.3-9.9,45.9-9.9c24.8,0,46,6.3,63.6,18.9
		c17.6,12.6,31.3,30.2,41.1,52.8c9.8,22.6,14.7,49.3,14.7,80.1c0,34.4-6.2,63.6-18.6,87.6c-12.4,24-28.3,42.3-47.7,54.9
		c-19.4,12.6-40.3,18.9-62.7,18.9c-12.8,0-25.2-2.7-37.2-8.1c-12-5.4-23-13.1-33-23.1h-2.4l4.8,46.8V773H533z M674.6,594.2
		c9.6,0,18.4-2.7,26.4-8.1c8-5.4,14.4-14.1,19.2-26.1s7.2-28,7.2-48c0-17.2-1.8-31.3-5.4-42.3c-3.6-11-9-19.2-16.2-24.6
		c-7.2-5.4-16.6-8.1-28.2-8.1c-8.4,0-16.6,1.9-24.6,5.7c-8,3.8-16,10.1-24,18.9v115.2c7.2,6.4,14.8,10.9,22.8,13.5
		C659.8,592.9,667.4,594.2,674.6,594.2z"/>
</g>
</svg>
